<svg width="24" height="24" viewBox="0 0 24 24" fill="none" xmlns="http://www.w3.org/2000/svg">
<path fill-rule="evenodd" clip-rule="evenodd"
      d="M1.98542 5.31941C1.65076 5.81964 1.7836 6.49739 2.28214 6.83319C2.78068 7.16899 3.45613 7.03569 3.79079 6.53545C5.59773 3.83456 8.61909 2.18182 11.9214 2.18182C17.3255 2.18182 21.7064 6.57757 21.7064 12C21.7064 17.4224 17.3255 21.8182 11.9214 21.8182C11.321 21.8182 10.8342 22.3066 10.8342 22.9091C10.8342 23.5116 11.321 24 11.9214 24C18.5264 24 23.8808 18.6274 23.8808 12C23.8808 5.37258 18.5264 0 11.9214 0C7.88679 0 4.19204 2.0211 1.98542 5.31941Z"
      fill="#4bff00"
/>
</svg>
