<svg width="144" height="24" viewBox="0 0 144 24" fill="none" xmlns="http://www.w3.org/2000/svg">
<path fill-rule="evenodd" clip-rule="evenodd" d="M15.75 2H8.25C4.79875 2 2 4.79875 2 8.25V15.75C2 19.2013 4.79875 22 8.25 22H15.75C19.2013 22 22 19.2013 22 15.75V8.25C22 4.79875 19.2013 2 15.75 2ZM20.125 15.75C20.125 18.1625 18.1625 20.125 15.75 20.125H8.25C5.8375 20.125 3.875 18.1625 3.875 15.75V8.25C3.875 5.8375 5.8375 3.875 8.25 3.875H15.75C18.1625 3.875 20.125 5.8375 20.125 8.25V15.75ZM12.0002 7.2002C9.3494 7.2002 7.2002 9.3494 7.2002 12.0002C7.2002 14.651 9.3494 16.8002 12.0002 16.8002C14.651 16.8002 16.8002 14.651 16.8002 12.0002C16.8002 9.3494 14.651 7.2002 12.0002 7.2002ZM12.0002 15.0002C10.3466 15.0002 9.0002 13.6538 9.0002 12.0002C9.0002 10.3454 10.3466 9.0002 12.0002 9.0002C13.6538 9.0002 15.0002 10.3454 15.0002 12.0002C15.0002 13.6538 13.6538 15.0002 12.0002 15.0002ZM17.9998 6.6C17.9998 6.93137 17.7312 7.2 17.3998 7.2C17.0684 7.2 16.7998 6.93137 16.7998 6.6C16.7998 6.26863 17.0684 6 17.3998 6C17.7312 6 17.9998 6.26863 17.9998 6.6Z" fill="url(#paint0_linear_1907_8134)"/>
<path d="M51.786 17.3635H52.9811C52.9811 17.3635 53.3424 17.3234 53.5261 17.1247C53.6961 16.9422 53.6899 16.5996 53.6899 16.5996C53.6899 16.5996 53.6661 14.9958 54.4112 14.7595C55.145 14.527 56.0876 16.3096 57.0864 16.9959C57.8414 17.5147 58.4152 17.401 58.4152 17.401L61.0867 17.3635C61.0867 17.3635 62.4843 17.2772 61.8217 16.1784C61.768 16.0884 61.4355 15.3658 59.8353 13.8807C58.1602 12.3256 58.3852 12.5781 60.4029 9.88915C61.6317 8.25152 62.123 7.25145 61.9692 6.82392C61.823 6.41639 60.9192 6.52389 60.9192 6.52389L57.9139 6.5414C57.9139 6.5414 57.6914 6.51139 57.5252 6.61015C57.3639 6.70766 57.2601 6.93268 57.2601 6.93268C57.2601 6.93268 56.7839 8.20027 56.1488 9.27785C54.81 11.5518 54.2737 11.6718 54.0549 11.5305C53.5461 11.2017 53.6736 10.2079 53.6736 9.50287C53.6736 7.29895 54.0074 6.38013 53.0223 6.14262C52.6948 6.06386 52.4548 6.01136 51.6185 6.00261C50.5459 5.99136 49.6371 6.00636 49.1233 6.25763C48.7808 6.42514 48.517 6.79892 48.6783 6.82017C48.877 6.84642 49.3271 6.94143 49.5658 7.26645C49.8746 7.68523 49.8634 8.6278 49.8634 8.6278C49.8634 8.6278 50.0409 11.2217 49.4496 11.5443C49.0433 11.7655 48.487 11.3143 47.2932 9.25035C46.6819 8.19402 46.2193 7.02518 46.2193 7.02518C46.2193 7.02518 46.1306 6.80767 45.9718 6.69141C45.7793 6.55015 45.5093 6.50514 45.5093 6.50514L42.6516 6.52264C42.6516 6.52264 42.2228 6.53515 42.0653 6.72141C41.9253 6.88767 42.054 7.2302 42.054 7.2302C42.054 7.2302 44.2917 12.4643 46.8244 15.1033C49.1483 17.5222 51.786 17.3635 51.786 17.3635Z" fill="#1E88E5"/>
<path fill-rule="evenodd" clip-rule="evenodd" d="M84.5 2H99.5C100.879 2 102 3.12125 102 4.5V19.5C102 20.8787 100.879 22 99.5 22H95.75V15.125H97.625L98.875 12H95.75V9.5C95.75 8.86577 96.2231 8.86942 96.8355 8.87416C96.8893 8.87458 96.9442 8.875 97 8.875H98.25V5.75H95.75C93.6788 5.75 92 7.42875 92 9.5V12H89.5V15.125H92V22H84.5C83.1212 22 82 20.8787 82 19.5V4.5C82 3.12125 83.1212 2 84.5 2Z" fill="#1976D2"/>
<path d="M131.792 5.0251C132.97 5.0251 133.929 5.98373 133.929 7.16224C133.929 8.33977 132.97 9.29839 131.792 9.29839C130.614 9.29839 129.655 8.33977 129.655 7.16224C129.655 5.98348 130.614 5.0251 131.792 5.0251ZM131.792 12.322C134.639 12.322 136.954 10.0077 136.954 7.16224C136.954 4.31528 134.639 2 131.792 2C128.945 2 126.63 4.31552 126.63 7.16224C126.63 10.0077 128.945 12.322 131.792 12.322ZM133.88 16.5323C134.942 16.2905 135.955 15.8709 136.877 15.2913C137.217 15.0777 137.457 14.7381 137.546 14.3471C137.635 13.9561 137.566 13.5457 137.352 13.2063C137.246 13.038 137.109 12.8923 136.947 12.7773C136.785 12.6624 136.602 12.5805 136.408 12.5363C136.214 12.4922 136.014 12.4866 135.818 12.52C135.622 12.5534 135.435 12.6251 135.267 12.7309C133.152 14.0604 130.43 14.0594 128.317 12.7309C128.149 12.625 127.962 12.5534 127.766 12.52C127.57 12.4865 127.37 12.4921 127.176 12.5362C126.983 12.5804 126.8 12.6623 126.638 12.7773C126.476 12.8922 126.338 13.038 126.232 13.2063C126.019 13.5456 125.949 13.9559 126.038 14.3469C126.126 14.7379 126.367 15.0776 126.706 15.2913C127.628 15.8707 128.641 16.2902 129.703 16.5323L126.817 19.4183C126.534 19.702 126.375 20.0867 126.375 20.4878C126.375 20.8888 126.534 21.2735 126.818 21.5571C127.102 21.8406 127.486 21.9999 127.887 21.9998C128.288 21.9997 128.673 21.8403 128.957 21.5567L131.791 18.7213L134.628 21.5569C134.768 21.6974 134.935 21.8088 135.118 21.8848C135.302 21.9609 135.498 22 135.697 22C135.895 22 136.092 21.9609 136.275 21.8848C136.458 21.8088 136.625 21.6974 136.765 21.5569C136.906 21.4167 137.017 21.2501 137.094 21.0666C137.17 20.8832 137.209 20.6865 137.209 20.4879C137.209 20.2892 137.17 20.0926 137.094 19.9091C137.017 19.7257 136.906 19.559 136.765 19.4188L133.88 16.5323Z" fill="#EE8208"/>
<defs>
<linearGradient id="paint0_linear_1907_8134" x1="4.92912" y1="19.0709" x2="19.0709" y2="4.92912" gradientUnits="userSpaceOnUse">
<stop stop-color="#FFC107"/>
<stop offset="0.507" stop-color="#F44336"/>
<stop offset="0.99" stop-color="#9C27B0"/>
</linearGradient>
</defs>
</svg>
